<svg width="380" height="380" viewBox="0 0 380 380" fill="none" xmlns="http://www.w3.org/2000/svg">
<path d="M334.131 272.755C340.228 279.073 343.148 286.666 342.893 295.533C342.638 304.401 339.373 311.9 333.099 318.031L310.159 339.896C303.885 346.027 296.342 348.962 287.531 348.699C278.721 348.436 271.267 345.146 265.171 338.828L212.477 283.386L191.018 357.001C188.595 365.313 183.479 371.614 175.671 375.902C167.864 380.191 159.829 381.113 151.568 378.669L121.066 369.645C112.804 367.2 106.541 362.048 102.275 354.187C98.0084 346.327 97.0869 338.24 99.5101 329.927L120.969 256.312L46.8865 274.246C38.367 276.24 30.3309 274.948 22.7783 270.369C15.2257 265.79 10.4559 259.213 8.46898 250.638L0.906677 219.749C-1.08029 211.173 0.19854 203.086 4.74315 195.488C9.28777 187.89 15.8198 183.094 24.3393 181.1L98.4922 162.926L45.8685 107.245C39.7722 100.927 36.8517 93.3339 37.1069 84.4666C37.362 75.5994 40.6267 68.1001 46.9009 61.9687L69.8412 40.1043C76.1153 33.9729 83.6578 31.0384 92.4686 31.301C101.279 31.5635 108.733 34.854 114.829 41.1725L167.523 96.614L188.982 22.9992C191.405 14.6866 196.521 8.38603 204.329 4.09751C212.136 -0.191007 220.171 -1.11321 228.432 1.33093L258.935 10.3554C267.196 12.7996 273.459 17.952 277.725 25.8127C281.992 33.6734 282.913 41.7601 280.49 50.0728L259.031 123.688L333.114 105.754C341.633 103.76 349.669 105.052 357.222 109.631C364.774 114.21 369.544 120.787 371.531 129.362L379.093 160.251C381.08 168.827 379.801 176.914 375.257 184.512C370.712 192.11 364.18 196.906 355.661 198.9L281.508 217.074L334.131 272.755Z" fill="#9A3156"/>
</svg>
