<svg width="479" height="479" viewBox="0 0 479 479" fill="none" xmlns="http://www.w3.org/2000/svg">
<path d="M419.365 345.532L419.373 345.541L419.382 345.551C426.595 353.025 430.029 361.943 429.727 372.456C429.424 382.988 425.576 391.82 418.144 399.088C418.14 399.092 418.136 399.095 418.133 399.099L389.239 426.638L389.227 426.649L389.216 426.66C381.795 433.911 372.947 437.356 362.515 437.045C352.063 436.734 343.29 432.861 336.062 425.374C336.059 425.371 336.056 425.368 336.054 425.365L269.645 355.493L266.65 352.342L265.433 356.516L238.383 449.309C235.52 459.131 229.515 466.547 220.235 471.644C210.955 476.741 201.515 477.81 191.765 474.925L153.316 463.549C143.565 460.665 136.192 454.62 131.117 445.27C126.042 435.919 124.972 426.404 127.835 416.582L154.885 323.788L156.094 319.643L151.897 320.659L58.5318 343.26C58.5281 343.261 58.5243 343.262 58.5205 343.263C48.4291 345.622 38.9722 344.104 30.0087 338.67C21.0627 333.246 15.4627 325.522 13.1109 315.371L13.1073 315.356L13.1037 315.341L3.57837 276.435C3.5772 276.43 3.57602 276.425 3.57485 276.42C1.22221 266.25 2.72836 256.723 8.12438 247.701C13.51 238.697 21.1793 233.072 31.2502 230.715L31.2628 230.712L31.2755 230.709L124.747 207.801L128.92 206.779L125.969 203.656L59.6355 133.468L59.6266 133.459L59.6176 133.449C52.4054 125.974 48.9706 117.057 49.2731 106.544C49.5762 96.0119 53.4238 87.18 60.8561 79.9119L89.7615 52.3622L89.7728 52.3514L89.784 52.3405C97.2045 45.0888 106.053 41.6438 116.485 41.9546C126.938 42.2661 135.712 46.1397 142.94 53.6279C142.942 53.6302 142.944 53.6325 142.946 53.6348L209.355 123.507L212.35 126.658L213.567 122.484L240.617 29.6908C243.48 19.8688 249.485 12.4533 258.765 7.35624C268.045 2.25933 277.485 1.19035 287.235 4.07495L325.685 15.4506C335.435 18.3354 342.808 24.3798 347.883 33.7301C352.958 43.0807 354.028 52.5958 351.165 62.4184L324.115 155.212L322.906 159.357L327.103 158.341L420.468 135.74C420.471 135.739 420.474 135.739 420.477 135.738C430.57 133.378 440.027 134.896 448.991 140.33C457.937 145.754 463.537 153.478 465.889 163.629L465.893 163.644L465.896 163.659L475.422 202.565C475.423 202.57 475.424 202.575 475.425 202.579C477.778 212.75 476.272 222.277 470.876 231.299C465.49 240.303 457.821 245.928 447.75 248.285L447.737 248.288L447.725 248.291L354.253 271.199L350.08 272.221L353.031 275.344L419.365 345.532Z" stroke="#9A3156" stroke-width="5"/>
</svg>
